# xmcd
#
# Track frame offsets:
#	150
#	19596
#	30037
#	44894
#	60193
#	79697
#	92788
#	111101
#	130086
#	145654
#	159379
#	175907
#	192550
#	210614
#	225740
#
# Disc length: 3278 seconds
#
# Revision: 1
# Processed by: cddbd v1.5.2PL0 Copyright (c) Steve Scherf et al.
# Submitted via: audiograbber 1.83.01
#
DISCID=bc0ccc0f
DTITLE=Jonny Hill  - Das Beste - 30 Jahre Ruf Teddybaer  CD 2
DYEAR=2010
DGENRE=Country
TTITLE0=Hallo Teddybaer
TTITLE1=Rauch In Den Haaren
TTITLE2=Nur Mit Dir
TTITLE3=Du Warst Mehr
TTITLE4=Fuenfzigtausend Kilometer
TTITLE5=Gott Sei Dank Gibt's Das Radio
TTITLE6=Woelfe Und Schafe
TTITLE7=Das Konzert
TTITLE8=Mehr Als Tausend Kleine Suenden
TTITLE9=Wir Beide Werden Niemals Alt
TTITLE10=Tierra Libre
TTITLE11=Wie Viel Wert Sind 20 Jahre
TTITLE12=Und Dann Seh Ich Diese Augen
TTITLE13=Schnee Von Gestern
TTITLE14=Teddybaer Ich Danke Dir
EXTD=
EXTT0=
EXTT1=
EXTT2=
EXTT3=
EXTT4=
EXTT5=
EXTT6=
EXTT7=
EXTT8=
EXTT9=
EXTT10=
EXTT11=
EXTT12=
EXTT13=
EXTT14=
PLAYORDER=
